<svg height="32" viewBox="0 0 32 32" width="32" xmlns="http://www.w3.org/2000/svg"><g fill="#198cca"><path d="m31.333 426.666h-12a.667.667 0 0 0 -.667.667v.667h-5.333v-.667a.667.667 0 0 0 -.667-.667h-12a.667.667 0 0 0 -.667.667v3.333a1.333 1.333 0 0 0 1.334 1.334h29.334a1.333 1.333 0 0 0 1.333-1.334v-3.333a.667.667 0 0 0 -.667-.667zm-.667 4h-29.333v-2.666h10.667v.667a.667.667 0 0 0 .667.667h6.667a.667.667 0 0 0 .667-.667v-.667h10.666v2.667z" transform="translate(0 -399.999)"/><path d="m22.666 98a.667.667 0 0 1 .667-.667h8.667v-1.333h-8.667a2 2 0 0 0 -2 2v17.333h1.333z" transform="translate(-20 -90)"/><path d="m329.333 98v17.333h1.333v-17.333a2 2 0 0 0 -2-2h-8.666v1.333h8.667a.667.667 0 0 1 .666.667z" transform="translate(-300 -90)"/><path d="m348 155.333v-16a.667.667 0 0 0 -.667-.667h-6v1.334h5.333v15.333z" transform="translate(-320 -129.999)"/><path d="m70.667 138.667h-6a.667.667 0 0 0 -.667.667v16h1.333v-15.334h5.333v-1.333z" transform="translate(-60 -130)"/><path d="m225.445 17.7a.667.667 0 0 0 1.109 0l1.333-2a.671.671 0 0 0 .112-.37v-14.663a.667.667 0 0 0 -.666-.667h-2.667a.667.667 0 0 0 -.666.667v14.666a.671.671 0 0 0 .112.37zm.555-1.57-.667-1v-10.463h1.333v10.466zm.667-14.8v2h-1.333v-2z" transform="translate(-210)"/><path d="m118.667 192a1.333 1.333 0 0 0 -1.333 1.333v2.667a1.333 1.333 0 0 0 1.333 1.333h2.667a1.333 1.333 0 0 0 1.333-1.333v-2.667a1.333 1.333 0 0 0 -1.333-1.333zm2.667 4h-2.667v-2.667h2.667z" transform="translate(-110.001 -180)"/><path d="m310.667 197.333h2.667a1.333 1.333 0 0 0 1.333-1.333v-2.667a1.333 1.333 0 0 0 -1.333-1.333h-2.667a1.333 1.333 0 0 0 -1.333 1.333v2.667a1.333 1.333 0 0 0 1.333 1.333zm0-4h2.667v2.667h-2.667z" transform="translate(-290.001 -180)"/><path d="m118.667 314.667h2.667a1.333 1.333 0 0 0 1.333-1.333v-2.667a1.333 1.333 0 0 0 -1.333-1.333h-2.667a1.333 1.333 0 0 0 -1.333 1.333v2.667a1.333 1.333 0 0 0 1.333 1.333zm0-4h2.667v2.667h-2.667z" transform="translate(-110.001 -290.001)"/><path d="m234.667 310.667v2.667a1.333 1.333 0 0 0 1.333 1.333h2.667a1.333 1.333 0 0 0 1.333-1.333v-2.667a1.333 1.333 0 0 0 -1.333-1.333h-2.667a1.333 1.333 0 0 0 -1.333 1.333zm4 2.667h-2.667v-2.667h2.667z" transform="translate(-220 -290.001)"/><path d="m352 320h2.667v1.333h-2.667z" transform="translate(-330 -300)"/><path d="m352 362.667h2.667v1.333h-2.667z" transform="translate(-330 -340)"/></g></svg>