<svg height="32" viewBox="0 0 32 32" width="32" xmlns="http://www.w3.org/2000/svg"><g fill="#198cca" transform="translate(-.002)"><path d="m30 5.334h-8.665v-2h2a.667.667 0 0 0 .665-.667v-1.333a1.306 1.306 0 0 0 -1.276-1.334h-13.389a1.306 1.306 0 0 0 -1.335 1.279v.055 1.333a.667.667 0 0 0 .667.667h2v2h-8.667a2 2 0 0 0 -2 2v6.666a2 2 0 0 0 2 2h9.333a.667.667 0 0 0 .653-.533l.559-2.8h4.121v-1.333h-4.666a.667.667 0 0 0 -.653.533l-.559 2.8h-8.788a.667.667 0 0 1 -.665-.667v-6.666a.667.667 0 0 1 .665-.667h28a.667.667 0 0 1 .667.667v6.666a.667.667 0 0 1 -.667.667v1.333a2 2 0 0 0 2-2v-6.666a2 2 0 0 0 -2-2zm-20.666-4 13.331-.034a.137.137 0 0 1 0 .037v.663h-13.33zm2.667 2h8v2h-8.001v-2z"/><path d="m22.669 290v-12.662h-1.333v12.662a2 2 0 0 0 2 2h6v-1.333h-6a.667.667 0 0 1 -.667-.667z" transform="translate(-20.001 -260.004)"/><path d="m289.547 225.372a29.747 29.747 0 0 1 -2.877-1.123v-.031a4.674 4.674 0 0 0 2.666-4.218v-2a4.667 4.667 0 1 0 -9.336 0v2a4.674 4.674 0 0 0 2.667 4.213v.031a29.726 29.726 0 0 1 -2.877 1.123c-2.428.809-2.456 2.559-2.456 2.633v4h1.333v-3.982c0-.036.067-.893 1.545-1.385a28.5 28.5 0 0 0 3.42-1.366.667.667 0 0 0 .369-.6v-.9a.667.667 0 0 0 -.444-.629 3.337 3.337 0 0 1 -2.221-3.138v-2a3.333 3.333 0 0 1 6.664 0v2a3.337 3.337 0 0 1 -2.223 3.139.667.667 0 0 0 -.444.629v.9a.667.667 0 0 0 .369.6 28.489 28.489 0 0 0 3.421 1.369c1.477.489 1.544 1.346 1.544 1.364v4h1.333v-4c0-.074-.028-1.823-2.456-2.633z" transform="translate(-260.001 -200.004)"/><path d="m177.337 223.705a.667.667 0 0 0 -.444-.629 3.337 3.337 0 0 1 -2.223-3.139v-2a3.333 3.333 0 0 1 4.923-2.937l.637-1.171a4.667 4.667 0 0 0 -6.893 4.1v2a4.674 4.674 0 0 0 2.663 4.222v.031a29.726 29.726 0 0 1 -2.877 1.123c-2.428.809-2.456 2.559-2.456 2.633v4h1.333v-3.982c0-.036.067-.893 1.545-1.385a28.5 28.5 0 0 0 3.42-1.366.667.667 0 0 0 .369-.6z" transform="translate(-160.001 -199.938)"/><path d="m64 416.005v2.667a.667.667 0 0 0 .667.667h2.667v-1.333h-2v-2h-1.334z" transform="translate(-60 -390.005)"/><path d="m384 458.671h1.333v1.329h-1.333z" transform="translate(-360 -430.004)"/><path d="m426.669 458.671h1.331v1.329h-1.333z" transform="translate(-400.001 -430.004)"/><path d="m341.336 458.671h1.333v1.329h-1.333z" transform="translate(-320.001 -430.004)"/></g></svg>