<svg height="32" viewBox="0 0 32 32" width="32" xmlns="http://www.w3.org/2000/svg"><g fill="#198cca" transform="translate(-.081)"><path d="m10.081 21.458v-2.821a9.334 9.334 0 1 0 -1.333 0v2.823a2 2 0 0 0 -1.333 1.877v6.663a2 2 0 0 0 4 0v-6.664a2 2 0 0 0 -1.334-1.878zm-8.666-12.117a8 8 0 1 1 8 8 8 8 0 0 1 -8-8zm8.666 20.659a.667.667 0 0 1 -1.333 0v-6.664a.667.667 0 0 1 .667-.666.649.649 0 0 1 .475.2.638.638 0 0 1 .192.463z"/><path d="m221.892 5.7-5.333-5.336a.666.666 0 0 0 -.471-.2h-9.333v1.336h8.667v3.334a2 2 0 0 0 2 2h1.333v-1.334h-1.333a.667.667 0 0 1 -.667-.666v-2.39l4 4v23.715a.667.667 0 0 1 -.667.666h-17.334v1.333h17.333a2 2 0 0 0 2-2v-23.991a.666.666 0 0 0 -.195-.467z" transform="translate(-190.006 -.158)"/><path d="m138.754 138.836h1.333v1.333h-1.333z" transform="translate(-130.006 -130.161)"/><path d="m192.088 138.836h1.333v1.333h-1.333z" transform="translate(-180.007 -130.161)"/><path d="m85.421 138.836h1.333v1.333h-1.333z" transform="translate(-80.006 -130.161)"/><path d="m277.421 166.833v1.333h10.667a.667.667 0 0 0 .667-.666v-6.664a.667.667 0 0 0 -.667-.666h-7.333v1.33h6.667v5.332h-10z" transform="translate(-260.006 -150.162)"/><path d="m245.421 320.169h13.333v1.331h-13.333z" transform="translate(-230.006 -300.165)"/><path d="m437.421 373.5h1.333v1.333h-1.333z" transform="translate(-410.006 -350.166)"/><path d="m394.754 373.5h1.333v1.333h-1.333z" transform="translate(-370.006 -350.166)"/></g></svg>