<svg height="32" viewBox="0 0 32 32" width="32" xmlns="http://www.w3.org/2000/svg"><g fill="#198cca"><path d="m14.667 19.333h-1.334v-4.666c0-.018-.067-.875-1.544-1.367a28.491 28.491 0 0 1 -3.421-1.366.667.667 0 0 1 -.369-.6v-.9a.667.667 0 0 1 .448-.63 3.034 3.034 0 0 0 .711-.356 3.314 3.314 0 0 0 1.507-2.781v-2a3.379 3.379 0 0 0 -.189-1.113 3.333 3.333 0 0 0 -6.476 1.113v2a3.333 3.333 0 0 0 2.221 3.133.667.667 0 0 1 .445.629v.9a.667.667 0 0 1 -.369.6 28.491 28.491 0 0 1 -3.42 1.371c-1.477.492-1.544 1.349-1.544 1.385v4.649h-1.333v-4.667c0-.074.028-1.823 2.456-2.633a29.752 29.752 0 0 0 2.877-1.123v-.032a4.667 4.667 0 0 1 -2.666-4.212v-2a4.667 4.667 0 0 1 9.333 0v2a4.641 4.641 0 0 1 -2.1 3.891 4.319 4.319 0 0 1 -.566.322v.031a29.726 29.726 0 0 0 2.877 1.123c2.428.809 2.456 2.559 2.456 2.633v4.667z"/><path d="m106.667 245.333h1.333v1.333h-1.333z" transform="translate(-100 -230)"/><path d="m149.333 245.333h1.333v1.333h-1.333z" transform="translate(-140 -230)"/><path d="m64 245.333h1.333v1.333h-1.333z" transform="translate(-60 -230)"/><path d="m292 222h-1.333v-4.667c0-.018-.067-.875-1.544-1.368a28.432 28.432 0 0 1 -3.423-1.365.667.667 0 0 1 -.369-.6v-.9a.667.667 0 0 1 .445-.629 3.333 3.333 0 0 0 2.224-3.138v-2a3.333 3.333 0 1 0 -6.667 0v2a3.3 3.3 0 0 0 .854 2.219 3.345 3.345 0 0 0 1.371.921.667.667 0 0 1 .441.627v.9a.667.667 0 0 1 -.369.6 28.434 28.434 0 0 1 -3.421 1.369c-1.477.489-1.544 1.347-1.544 1.383v4.648h-1.333v-4.667c0-.074.028-1.823 2.456-2.632a29.655 29.655 0 0 0 2.877-1.125v-.033a4.677 4.677 0 0 1 -2.667-4.21v-2a4.667 4.667 0 1 1 9.333 0v2a4.667 4.667 0 0 1 -2.667 4.213v.031a29.66 29.66 0 0 0 2.877 1.125c2.428.809 2.456 2.558 2.456 2.632z" transform="translate(-260 -189.999)"/><path d="m384 448h1.333v1.333h-1.333z" transform="translate(-360 -420)"/><path d="m426.667 448h1.333v1.333h-1.333z" transform="translate(-400 -420)"/><path d="m341.333 448h1.333v1.333h-1.333z" transform="translate(-320 -420)"/><path d="m220.667 50.667h-18v-1.333h18v-5.334h-17.333v-1.333h17.333a1.333 1.333 0 0 1 1.333 1.333v5.333a1.333 1.333 0 0 1 -1.333 1.334z" transform="translate(-190 -40)"/><path d="m16 349.334h-14.667a1.333 1.333 0 0 1 -1.333-1.334v-5.333a1.333 1.333 0 0 1 1.333-1.333h17.334v1.333h-17.334v5.333h14.667z" transform="translate(0 -320.001)"/><path d="m213.333 96h13.333v1.333h-13.333z" transform="translate(-200 -90)"/><path d="m85.333 394.667h10.667v1.333h-10.667z" transform="translate(-80 -370)"/><path d="m42.667 394.667h1.333v1.333h-1.333z" transform="translate(-40 -370)"/><path d="m448 96h1.333v1.333h-1.333z" transform="translate(-420 -90)"/></g></svg>