<svg height="685.201" viewBox="0 0 2147.474 685.201" width="2147.474" xmlns="http://www.w3.org/2000/svg"><path d="m35.944 244.135v-235.184h-61.444v29.209c-15.608-23.669-46.832-34.245-73.019-34.245-32.734 0-60.936 11.583-84.606 34.245s-35.252 51.871-35.252 88.131 12.086 65.972 35.756 88.635 51.871 33.742 84.1 33.742c26.187 0 58.922-12.59 73.023-34.749v30.216zm-61.444-117.844c2.518 58.418-73.023 83.1-110.29 45.828-12.59-12.087-19.137-27.195-19.137-45.828s6.547-33.742 19.137-45.325c13.094-12.087 28.2-18.13 45.828-18.13 17.123 0 32.231 5.54 44.821 17.123 13.098 11.583 19.641 26.692 19.641 46.332zm346.485 117.844v-363.1h-60.937v159.14c-12.59-22.662-41.8-36.26-74.03-36.26-31.727 0-58.922 11.583-81.584 34.245s-33.742 51.872-33.742 88.635c0 36.26 11.079 65.972 33.742 88.635s49.857 33.742 81.584 33.742 61.44-14.1 74.03-36.763v31.727zm-124.895-181.802c16.619 0 31.224 6.043 43.814 17.626s19.137 26.691 19.137 45.828-6.041 34.749-18.633 46.836c-12.087 11.583-26.691 17.626-44.317 17.626s-32.231-6.043-44.317-17.626c-11.583-12.087-17.626-27.7-17.626-46.835-.001-37.771 27.193-63.455 61.942-63.455zm400.871 63.454c0-36.26-11.583-65.469-34.245-88.131s-50.865-33.741-85.11-33.741-62.951 11.079-86.62 33.742-35.252 51.871-35.252 88.131 11.583 65.972 35.252 89.138c23.669 22.662 52.375 34.245 86.62 34.245 46.835 0 89.642-18.633 109.786-56.907l-46.835-25.18c-10.576 19.641-34.245 30.216-58.922 30.216-34.749 0-60.936-19.641-64.965-50.361h179.284c.503-7.554 1.007-14.605 1.007-21.151zm-180.795-20.647c4.532-30.72 29.209-49.857 61.944-49.857 30.72 0 54.389 18.13 58.922 49.857zm331.373 139 99.21-235.189h-65.972l-60.433 156.621-60.432-156.621h-65.469l98.707 235.184zm352.524 0v-235.189h-61.44v29.209c-15.611-23.669-46.835-34.245-73.023-34.245-32.734 0-60.936 11.583-84.606 34.245s-35.252 51.871-35.252 88.131 12.087 65.972 35.756 88.635 51.871 33.742 84.1 33.742c26.188 0 58.922-12.59 73.023-34.749v30.216zm-61.44-117.844c2.518 58.418-73.023 83.1-110.29 45.828-12.59-12.087-19.137-27.195-19.137-45.828s6.547-33.742 19.137-45.325c13.094-12.087 28.2-18.13 45.828-18.13 17.123 0 32.231 5.54 44.821 17.123 13.094 11.578 19.641 26.687 19.641 46.327z" fill="#1a284d" transform="translate(1047.411 237.998)"/><circle cx="670.167" cy="586.024" fill="#fdb436" r="31.83"/><path d="m439.975 409.4a134.208 134.208 0 0 0 43.257 98.638l39.46-36.7a80.975 80.975 0 0 1 52.121-143.118 76.318 76.318 0 0 1 13.7 1.38l.507-1.671 11.911-50.357a129.1 129.1 0 0 0 -26.12-3.01 134.836 134.836 0 0 0 -134.836 134.838z" fill="#fdb436" transform="translate(97.293 177.161)"/><circle cx="31.831" cy="586.024" fill="#f1553f" r="31.83"/><path d="m457.881 409.4a134.836 134.836 0 0 0 -134.839-134.837 129.1 129.1 0 0 0 -26.12 3.01l11.911 50.357.507 1.671a76.317 76.317 0 0 1 13.7-1.38 80.975 80.975 0 0 1 52.122 143.118l39.46 36.7a134.208 134.208 0 0 0 43.259-98.639z" fill="#f1553f" transform="translate(-293.149 177.161)"/><path d="m378.327 314.6a288.063 288.063 0 0 0 -35.164 24.584 158.869 158.869 0 0 1 13.03 59.341 229.569 229.569 0 0 1 48.707-38.437c90.944-53.154 204.13-34.512 274.138 38.23a158.884 158.884 0 0 1 13.086-59.278c-86.858-70.433-211.68-84.064-313.797-24.44z" fill="#24b768" transform="translate(-166.941 183.841)"/><circle cx="350.704" cy="31.83" fill="#198cca" r="31.83"/><path d="m520.19 219.651a80.07 80.07 0 0 1 -34.235 7.4q-.683 0-1.365-.011c-.451.008-.91.011-1.361.011a79.79 79.79 0 0 1 -77.973-60.009l-49.981 20.142a133.885 133.885 0 0 0 128.04 93.681c.429 0 .85 0 1.276-.007s.854.007 1.279.007a133.885 133.885 0 0 0 128.04-93.681l-49.984-20.142a80.6 80.6 0 0 1 -43.736 52.609z" fill="#198cca" transform="translate(-133.886 -116.305)"/><g fill="#24b768"><path d="m446.4 269.462a223.455 223.455 0 0 1 11.445-70.541c-3.084 1.708-6.12 3.483-9.327 4.986a157.438 157.438 0 0 1 -49.91 14.022 277.167 277.167 0 0 0 -4.885 51.532c0 116.572 72.6 216.314 174.869 256.941a161.163 161.163 0 0 1 41.139-41.612c-94.087-26.5-163.331-112.89-163.331-215.328z" transform="translate(-28.953 -29.293)"/><path d="m488.579 203.124c-2.518-1.179-4.882-2.61-7.325-3.916a223.722 223.722 0 0 1 11.046 69.47c0 102.621-69.5 189.127-163.838 215.46a161.119 161.119 0 0 1 41.1 41.683c102.557-40.489 175.41-140.365 175.41-257.142a277.3 277.3 0 0 0 -4.867-51.42 157.507 157.507 0 0 1 -51.526-14.135z" transform="translate(-207.063 -28.51)"/></g></svg>