<svg height="32" viewBox="0 0 32 32" width="32" xmlns="http://www.w3.org/2000/svg"><g fill="#198cca"><path d="m320.751 24.168h-2v-2a.667.667 0 0 0 -.667-.666h-4v1.333h3.333v20.66a.667.667 0 0 1 -.667.666h-7.333v1.333h7.333a2 2 0 0 0 2-2v-17.994h2v22.66h-11.332v1.333h11.333v1.333h-11.333v1.333h11.333a1.333 1.333 0 0 0 1.333-1.333v-25.326a1.333 1.333 0 0 0 -1.333-1.332z" transform="translate(-290.085 -20.158)"/><path d="m1.417 25.5h2v17.995a2 2 0 0 0 2 2h7.333v-1.334h-7.333a.667.667 0 0 1 -.667-.666v-20.66h3.334v-1.335h-4a.667.667 0 0 0 -.667.666v2h-2a1.333 1.333 0 0 0 -1.333 1.334v25.326a1.333 1.333 0 0 0 1.333 1.333h11.334v-1.333h-11.334v-1.333h11.334v-1.333h-11.334z" transform="translate(-.084 -20.158)"/><path d="m106.751 330.836h6v1.333h-6z" transform="translate(-100.084 -310.165)"/><path d="m309.418 330.836h6v1.333h-6z" transform="translate(-290.085 -310.165)"/><path d="m106.751 288.169h1.333v1.331h-1.333z" transform="translate(-100.084 -270.164)"/><path d="m384.085 288.169h1.333v1.331h-1.333z" transform="translate(-360.085 -270.164)"/><path d="m116.746 21.458v-2.821a9.334 9.334 0 1 0 -1.333 0v2.823a2 2 0 0 0 -1.333 1.877v6.663a2 2 0 0 0 4 0v-6.664a2 2 0 0 0 -1.334-1.878zm-8.667-12.117a8 8 0 1 1 8 8 8 8 0 0 1 -8-8zm8.667 20.659a.667.667 0 0 1 -1.333 0v-6.664a.667.667 0 0 1 .667-.666.652.652 0 0 1 .475.2.638.638 0 0 1 .192.463z" transform="translate(-100.079)"/><path d="m162.751 49.5a6.667 6.667 0 1 0 -6.667 6.665 6.666 6.666 0 0 0 6.667-6.665zm-12 0a5.333 5.333 0 1 1 5.333 5.332 5.332 5.332 0 0 1 -5.333-5.332z" transform="translate(-140.085 -40.159)"/></g></svg>