<svg height="32" viewBox="0 0 32 32" width="32" xmlns="http://www.w3.org/2000/svg"><g fill="#198cca"><path d="m30.667 12h-2.654a12.411 12.411 0 0 0 -.688-1.667l1.875-1.873a1.347 1.347 0 0 0 0-1.889l-3.775-3.771a1.346 1.346 0 0 0 -1.883.006l-1.875 1.869a12.411 12.411 0 0 0 -1.667-.688v-2.654a1.333 1.333 0 0 0 -1.333-1.333h-5.334a1.333 1.333 0 0 0 -1.333 1.333v2.654a12.411 12.411 0 0 0 -1.667.688l-1.875-1.875a1.347 1.347 0 0 0 -1.889 0l-3.769 3.775a1.345 1.345 0 0 0 0 1.883l1.873 1.873a12.405 12.405 0 0 0 -.686 1.669h-2.654a1.333 1.333 0 0 0 -1.333 1.333v5.333a1.333 1.333 0 0 0 1.333 1.334h2.654a12.548 12.548 0 0 0 .688 1.667l-1.875 1.875a1.333 1.333 0 0 0 0 1.882l3.772 3.776a1.345 1.345 0 0 0 1.884 0l1.873-1.873a12.43 12.43 0 0 0 1.671.686v2.653a1.333 1.333 0 0 0 1.333 1.334h5.333a1.333 1.333 0 0 0 1.334-1.333v-2.654a12.426 12.426 0 0 0 1.667-.689l1.873 1.876a1.345 1.345 0 0 0 1.889 0l3.771-3.775a1.333 1.333 0 0 0 0-1.883l-1.875-1.875a12.544 12.544 0 0 0 .688-1.667h2.654a1.333 1.333 0 0 0 1.333-1.333v-5.334a1.333 1.333 0 0 0 -1.333-1.333zm0 6.667h-3.147a.667.667 0 0 0 -.641.485 11.1 11.1 0 0 1 -.956 2.32.667.667 0 0 0 .113.793l2.219 2.218-3.77 3.773-2.22-2.22a.667.667 0 0 0 -.793-.112 11.117 11.117 0 0 1 -2.321.955.667.667 0 0 0 -.484.641v3.147h-5.334v-3.147a.667.667 0 0 0 -.484-.641 11.118 11.118 0 0 1 -2.321-.955.667.667 0 0 0 -.793.112l-2.223 2.22-3.767-3.771 2.22-2.22a.667.667 0 0 0 .113-.793 11.1 11.1 0 0 1 -.956-2.32.667.667 0 0 0 -.641-.485h-3.148v-5.334h3.147a.667.667 0 0 0 .641-.485 11.08 11.08 0 0 1 .956-2.32.667.667 0 0 0 -.113-.793l-2.219-2.224 3.77-3.766 2.22 2.22a.667.667 0 0 0 .793.113 11.08 11.08 0 0 1 2.32-.956.667.667 0 0 0 .485-.641v-3.148h5.333v3.147a.667.667 0 0 0 .485.641 11.08 11.08 0 0 1 2.32.956.667.667 0 0 0 .793-.113l2.224-2.22 3.767 3.771-2.22 2.22a.667.667 0 0 0 -.113.793 11.08 11.08 0 0 1 .956 2.32.667.667 0 0 0 .641.485h3.147z"/><path d="m116 106.667a9.333 9.333 0 0 0 -4 17.766v.9h1.333v-1.333a.667.667 0 0 0 -.41-.615 8 8 0 1 1 6.153 0 .667.667 0 0 0 -.41.615v1.333h1.334v-.9a9.333 9.333 0 0 0 -4-17.766z" transform="translate(-100.002 -100)"/><path d="m190.666 194a2 2 0 0 0 -4 0h1.334a.667.667 0 1 1 .667.667h-5.333a.667.667 0 1 1 .666-.667h1.333a2 2 0 1 0 -2 2h2v10h1.333v-10h2a2 2 0 0 0 2-2z" transform="translate(-170 -180)"/><path d="m245.333 437.333h1.333v1.333h-1.333z" transform="translate(-230 -410)"/><path d="m245.333 53.333h1.333v1.333h-1.333z" transform="translate(-230 -50)"/><path d="m437.333 245.333h1.333v1.333h-1.333z" transform="translate(-410 -230)"/><path d="m53.333 245.333h1.333v1.333h-1.333z" transform="translate(-50 -230)"/></g></svg>